# xmcd
#
# Track frame offsets: 
#        150
#        18336
#        38724
#        51632
#        64177
#        84114
#        97978
#        113605
#        129463
#        149675
#        165163
#
# Disc length: 2819 seconds
#
# Revision: 0
# Processed by: cddbd v1.5.1PL2 Copyright (c) Steve Scherf et al.
# Submitted via: ExactAudioCopy v0.95b1
#
DISCID=880b010b
DTITLE=Brandon Jenkins - Unmended
DYEAR=2002
DGENRE=Country
TTITLE0=My Feet Don't Touch The Ground
TTITLE1=In My Heart
TTITLE2=Austin
TTITLE3=Refinery Blues
TTITLE4=Fly On
TTITLE5=What's A Man To Do
TTITLE6=Texas Moon
TTITLE7=Unmended
TTITLE8=Hear Those Engines Wind
TTITLE9=Good Talkin' To
TTITLE10=The Rain
EXTD=
EXTT0=
EXTT1=
EXTT2=
EXTT3=
EXTT4=
EXTT5=
EXTT6=
EXTT7=
EXTT8=
EXTT9=
EXTT10=
PLAYORDER=
